<?xml version="1.0" encoding="UTF-8"?>
<svg width="256px" height="256px" viewBox="0 0 256 256" version="1.1" xmlns="http://www.w3.org/2000/svg">
    <g stroke="none" stroke-width="1" fill="none" fill-rule="evenodd">
        <g transform="translate(0.000000, 0.000000)" fill="#000000">
            <path d="M128,0 C57.3075821,0 0,57.3075821 0,128 C0,198.692418 57.3075821,256 128,256 C198.692418,256 256,198.692418 256,128 C256,57.3075821 198.692418,0 128,0 Z M128,240 C66.8629145,240 16,189.137085 16,128 C16,66.8629145 66.8629145,16 128,16 C189.137085,16 240,66.8629145 240,128 C240,189.137085 189.137085,240 128,240 Z"></path>
            <path d="M128,32 C77.7255821,32 32,77.7255821 32,128 C32,178.274418 77.7255821,224 128,224 C178.274418,224 224,178.274418 224,128 C224,77.7255821 178.274418,32 128,32 Z M128,208 C88.8629145,208 48,167.137085 48,128 C48,88.8629145 88.8629145,48 128,48 C167.137085,48 208,88.8629145 208,128 C208,167.137085 167.137085,208 128,208 Z"></path>
            <path d="M128,64 C98.1435821,64 64,98.1435821 64,128 C64,157.856418 98.1435821,192 128,192 C157.856418,192 192,157.856418 192,128 C192,98.1435821 157.856418,64 128,64 Z M128,176 C107.862915,176 80,148.137085 80,128 C80,107.862915 107.862915,80 128,80 C148.137085,80 176,107.862915 176,128 C176,148.137085 148.137085,176 128,176 Z"></path>
        </g>
    </g>
</svg> 